<svg width="180" height="70" viewBox="0 0 180 70" fill="none" xmlns="http://www.w3.org/2000/svg">
<rect y="2" width="65" height="65" fill="#FF9D00"/>
<path d="M28.0625 59.6875C24.8333 59.6875 22.0521 59.1146 19.7188 57.9688C17.3854 56.8021 15.5938 55.2292 14.3438 53.25C13.0938 51.2708 12.4688 49.0625 12.4688 46.625C12.4688 43.9167 13.2604 41.6667 14.8438 39.875C16.4271 38.0625 18.4688 36.2604 20.9688 34.4688C19.7604 32.9271 18.7188 31.2812 17.8438 29.5312C16.9896 27.7812 16.5625 25.875 16.5625 23.8125C16.5625 21.5417 17.0833 19.5104 18.125 17.7188C19.1875 15.9062 20.6667 14.4792 22.5625 13.4375C24.4583 12.375 26.6771 11.8438 29.2188 11.8438C31.7188 11.8438 33.875 12.3438 35.6875 13.3438C37.5 14.3438 38.8854 15.6771 39.8438 17.3438C40.8229 19.0104 41.3125 20.8438 41.3125 22.8438C41.3125 25.0104 40.7708 26.9896 39.6875 28.7812C38.625 30.5521 37.1042 32.1458 35.125 33.5625L32.4062 35.5312L40.0938 44.3125C40.6979 43.1667 41.1771 41.9271 41.5312 40.5938C41.8854 39.2396 42.0625 37.8125 42.0625 36.3125H50.125C50.125 39.4583 49.7396 42.2604 48.9688 44.7188C48.2188 47.1562 47.1979 49.2396 45.9062 50.9688L52.9062 59H42.75L39.9688 55.875C38.2604 57.2083 36.3542 58.1771 34.25 58.7812C32.1458 59.3854 30.0833 59.6875 28.0625 59.6875ZM24.8438 23.9375C24.8438 24.8958 25.1146 25.875 25.6562 26.875C26.1979 27.8542 26.8958 28.8958 27.75 30L30.1875 28.4062C32.4375 26.9062 33.5625 25.2292 33.5625 23.375C33.5625 22.4583 33.1875 21.6042 32.4375 20.8125C31.7083 20.0208 30.6667 19.625 29.3125 19.625C27.9792 19.625 26.8958 20.0521 26.0625 20.9062C25.25 21.7604 24.8438 22.7708 24.8438 23.9375ZM21.875 46.0938C21.875 47.7604 22.4792 49.1562 23.6875 50.2812C24.8958 51.3854 26.5104 51.9375 28.5312 51.9375C30.6562 51.9375 32.7292 51.3125 34.75 50.0625L25.9062 40.2188L25.625 40.4375C24.3542 41.3542 23.4062 42.3021 22.7812 43.2812C22.1771 44.2604 21.875 45.1979 21.875 46.0938Z" fill="#1B4B6E"/>
<path d="M82.992 30.32C81.3067 30.32 79.7493 30.0427 78.32 29.488C76.912 28.912 75.6853 28.112 74.64 27.088C73.5947 26.0427 72.784 24.816 72.208 23.408C71.6533 21.9787 71.376 20.4107 71.376 18.704C71.376 17.04 71.6747 15.504 72.272 14.096C72.8693 12.688 73.6907 11.472 74.736 10.448C75.8027 9.40267 77.0507 8.592 78.48 8.016C79.9307 7.44 81.5093 7.152 83.216 7.152C84.2827 7.152 85.328 7.29067 86.352 7.568C87.376 7.84533 88.3253 8.26133 89.2 8.816C90.096 9.34933 90.864 9.98933 91.504 10.736L88.176 14.544C87.728 14.0747 87.248 13.6693 86.736 13.328C86.2453 12.9653 85.7013 12.688 85.104 12.496C84.5067 12.304 83.8667 12.208 83.184 12.208C82.3307 12.208 81.52 12.368 80.752 12.688C80.0053 12.9867 79.344 13.424 78.768 14C78.2133 14.5547 77.776 15.2373 77.456 16.048C77.136 16.8587 76.976 17.7653 76.976 18.768C76.976 19.7493 77.136 20.6453 77.456 21.456C77.776 22.2453 78.224 22.928 78.8 23.504C79.376 24.08 80.0693 24.5173 80.88 24.816C81.712 25.1147 82.6293 25.264 83.632 25.264C84.3147 25.264 84.9653 25.168 85.584 24.976C86.2027 24.784 86.768 24.528 87.28 24.208C87.8133 23.8667 88.2827 23.4827 88.688 23.056L91.312 27.216C90.7787 27.8133 90.064 28.3467 89.168 28.816C88.2933 29.2853 87.312 29.6587 86.224 29.936C85.1573 30.192 84.08 30.32 82.992 30.32ZM82.992 65.32C81.3067 65.32 79.7493 65.0427 78.32 64.488C76.912 63.912 75.6853 63.112 74.64 62.088C73.5947 61.0427 72.784 59.816 72.208 58.408C71.6533 56.9787 71.376 55.4107 71.376 53.704C71.376 52.04 71.6747 50.504 72.272 49.096C72.8693 47.688 73.6907 46.472 74.736 45.448C75.8027 44.4027 77.0507 43.592 78.48 43.016C79.9307 42.44 81.5093 42.152 83.216 42.152C84.2827 42.152 85.328 42.2907 86.352 42.568C87.376 42.8453 88.3253 43.2613 89.2 43.816C90.096 44.3493 90.864 44.9893 91.504 45.736L88.176 49.544C87.728 49.0747 87.248 48.6693 86.736 48.328C86.2453 47.9653 85.7013 47.688 85.104 47.496C84.5067 47.304 83.8667 47.208 83.184 47.208C82.3307 47.208 81.52 47.368 80.752 47.688C80.0053 47.9867 79.344 48.424 78.768 49C78.2133 49.5547 77.776 50.2373 77.456 51.048C77.136 51.8587 76.976 52.7653 76.976 53.768C76.976 54.7493 77.136 55.6453 77.456 56.456C77.776 57.2453 78.224 57.928 78.8 58.504C79.376 59.08 80.0693 59.5173 80.88 59.816C81.712 60.1147 82.6293 60.264 83.632 60.264C84.3147 60.264 84.9653 60.168 85.584 59.976C86.2027 59.784 86.768 59.528 87.28 59.208C87.8133 58.8667 88.2827 58.4827 88.688 58.056L91.312 62.216C90.7787 62.8133 90.064 63.3467 89.168 63.816C88.2933 64.2853 87.312 64.6587 86.224 64.936C85.1573 65.192 84.08 65.32 82.992 65.32Z" fill="#FF9D00"/>
<path d="M92.1867 30L101.051 7.6H105.659L114.459 30H108.955L104.731 18.64C104.56 18.192 104.389 17.712 104.219 17.2C104.048 16.688 103.877 16.1653 103.707 15.632C103.536 15.0773 103.365 14.544 103.195 14.032C103.045 13.4987 102.917 13.008 102.811 12.56L103.771 12.528C103.643 13.0613 103.493 13.584 103.323 14.096C103.173 14.608 103.013 15.12 102.843 15.632C102.693 16.1227 102.523 16.624 102.331 17.136C102.139 17.6267 101.957 18.1387 101.787 18.672L97.5628 30H92.1867ZM96.4108 25.712L98.1068 21.616H108.411L110.075 25.712H96.4108ZM120.524 30V12.4H113.868V7.6H132.78V12.4H125.964V30H120.524ZM145.836 30.32C144.15 30.32 142.593 30.0427 141.164 29.488C139.756 28.912 138.529 28.112 137.484 27.088C136.438 26.0427 135.628 24.816 135.052 23.408C134.497 21.9787 134.22 20.4107 134.22 18.704C134.22 17.04 134.518 15.504 135.116 14.096C135.713 12.688 136.534 11.472 137.58 10.448C138.646 9.40267 139.894 8.592 141.324 8.016C142.774 7.44 144.353 7.152 146.06 7.152C147.126 7.152 148.172 7.29067 149.196 7.568C150.22 7.84533 151.169 8.26133 152.044 8.816C152.94 9.34933 153.708 9.98933 154.348 10.736L151.02 14.544C150.572 14.0747 150.092 13.6693 149.58 13.328C149.089 12.9653 148.545 12.688 147.948 12.496C147.35 12.304 146.71 12.208 146.028 12.208C145.174 12.208 144.364 12.368 143.596 12.688C142.849 12.9867 142.188 13.424 141.612 14C141.057 14.5547 140.62 15.2373 140.3 16.048C139.98 16.8587 139.82 17.7653 139.82 18.768C139.82 19.7493 139.98 20.6453 140.3 21.456C140.62 22.2453 141.068 22.928 141.644 23.504C142.22 24.08 142.913 24.5173 143.724 24.816C144.556 25.1147 145.473 25.264 146.476 25.264C147.158 25.264 147.809 25.168 148.428 24.976C149.046 24.784 149.612 24.528 150.124 24.208C150.657 23.8667 151.126 23.4827 151.532 23.056L154.156 27.216C153.622 27.8133 152.908 28.3467 152.012 28.816C151.137 29.2853 150.156 29.6587 149.068 29.936C148.001 30.192 146.924 30.32 145.836 30.32ZM171.767 30V7.6H177.207V30H171.767ZM157.879 30V7.6H163.319V30H157.879ZM159.991 21.264L160.023 16.4H174.647V21.264H159.991ZM92.1867 65L101.051 42.6H105.659L114.459 65H108.955L104.731 53.64C104.56 53.192 104.389 52.712 104.219 52.2C104.048 51.688 103.877 51.1653 103.707 50.632C103.536 50.0773 103.365 49.544 103.195 49.032C103.045 48.4987 102.917 48.008 102.811 47.56L103.771 47.528C103.643 48.0613 103.493 48.584 103.323 49.096C103.173 49.608 103.013 50.12 102.843 50.632C102.693 51.1227 102.523 51.624 102.331 52.136C102.139 52.6267 101.957 53.1387 101.787 53.672L97.5628 65H92.1867ZM96.4108 60.712L98.1068 56.616H108.411L110.075 60.712H96.4108ZM124.678 65.32C123.206 65.32 121.872 65.1493 120.678 64.808C119.504 64.4453 118.459 63.9333 117.542 63.272C116.624 62.5893 115.803 61.7893 115.078 60.872L118.374 57.128C119.44 58.5573 120.507 59.5173 121.574 60.008C122.662 60.4987 123.782 60.744 124.934 60.744C125.51 60.744 126.032 60.6693 126.502 60.52C126.971 60.3707 127.334 60.1573 127.59 59.88C127.846 59.5813 127.974 59.2187 127.974 58.792C127.974 58.472 127.888 58.184 127.718 57.928C127.568 57.672 127.355 57.448 127.078 57.256C126.8 57.064 126.47 56.8933 126.086 56.744C125.702 56.5733 125.296 56.4347 124.87 56.328C124.443 56.2 124.006 56.0933 123.558 56.008C122.32 55.7307 121.243 55.3893 120.326 54.984C119.408 54.5787 118.64 54.088 118.022 53.512C117.424 52.9147 116.976 52.2427 116.678 51.496C116.379 50.728 116.23 49.8747 116.23 48.936C116.23 47.9333 116.454 47.016 116.902 46.184C117.371 45.3307 117.99 44.6053 118.758 44.008C119.547 43.3893 120.454 42.92 121.478 42.6C122.502 42.2587 123.568 42.088 124.678 42.088C126.15 42.088 127.408 42.248 128.454 42.568C129.52 42.8667 130.427 43.304 131.174 43.88C131.942 44.456 132.592 45.1493 133.126 45.96L129.766 49.192C129.318 48.6373 128.827 48.1787 128.294 47.816C127.782 47.4533 127.227 47.176 126.63 46.984C126.054 46.792 125.456 46.696 124.838 46.696C124.198 46.696 123.643 46.7813 123.174 46.952C122.726 47.1013 122.374 47.3253 122.118 47.624C121.862 47.9013 121.734 48.2427 121.734 48.648C121.734 49.0107 121.84 49.32 122.054 49.576C122.267 49.832 122.555 50.0667 122.918 50.28C123.28 50.472 123.696 50.6427 124.166 50.792C124.635 50.92 125.126 51.0267 125.638 51.112C126.811 51.3467 127.867 51.656 128.806 52.04C129.766 52.424 130.587 52.8933 131.27 53.448C131.974 54.0027 132.507 54.664 132.87 55.432C133.254 56.1787 133.446 57.0533 133.446 58.056C133.446 59.6133 133.062 60.936 132.294 62.024C131.547 63.0907 130.512 63.912 129.19 64.488C127.888 65.0427 126.384 65.32 124.678 65.32ZM142.399 65V47.4H135.743V42.6H154.655V47.4H147.839V65H142.399Z" fill="#1B4B6E"/>
</svg>
