<svg width="208" height="78" viewBox="0 0 208 78" fill="none" xmlns="http://www.w3.org/2000/svg">
<rect x="116" y="2" width="65" height="65" fill="#FF9D00"/>
<path d="M144.062 59.6875C140.833 59.6875 138.052 59.1146 135.719 57.9688C133.385 56.8021 131.594 55.2292 130.344 53.25C129.094 51.2708 128.469 49.0625 128.469 46.625C128.469 43.9167 129.26 41.6667 130.844 39.875C132.427 38.0625 134.469 36.2604 136.969 34.4688C135.76 32.9271 134.719 31.2812 133.844 29.5312C132.99 27.7812 132.562 25.875 132.562 23.8125C132.562 21.5417 133.083 19.5104 134.125 17.7188C135.188 15.9062 136.667 14.4792 138.562 13.4375C140.458 12.375 142.677 11.8438 145.219 11.8438C147.719 11.8438 149.875 12.3438 151.688 13.3438C153.5 14.3438 154.885 15.6771 155.844 17.3438C156.823 19.0104 157.312 20.8438 157.312 22.8438C157.312 25.0104 156.771 26.9896 155.688 28.7812C154.625 30.5521 153.104 32.1458 151.125 33.5625L148.406 35.5312L156.094 44.3125C156.698 43.1667 157.177 41.9271 157.531 40.5938C157.885 39.2396 158.062 37.8125 158.062 36.3125H166.125C166.125 39.4583 165.74 42.2604 164.969 44.7188C164.219 47.1562 163.198 49.2396 161.906 50.9688L168.906 59H158.75L155.969 55.875C154.26 57.2083 152.354 58.1771 150.25 58.7812C148.146 59.3854 146.083 59.6875 144.062 59.6875ZM140.844 23.9375C140.844 24.8958 141.115 25.875 141.656 26.875C142.198 27.8542 142.896 28.8958 143.75 30L146.188 28.4062C148.438 26.9062 149.562 25.2292 149.562 23.375C149.562 22.4583 149.188 21.6042 148.438 20.8125C147.708 20.0208 146.667 19.625 145.312 19.625C143.979 19.625 142.896 20.0521 142.062 20.9062C141.25 21.7604 140.844 22.7708 140.844 23.9375ZM137.875 46.0938C137.875 47.7604 138.479 49.1562 139.688 50.2812C140.896 51.3854 142.51 51.9375 144.531 51.9375C146.656 51.9375 148.729 51.3125 150.75 50.0625L141.906 40.2188L141.625 40.4375C140.354 41.3542 139.406 42.3021 138.781 43.2812C138.177 44.2604 137.875 45.1979 137.875 46.0938Z" fill="#1B4B6E"/>
<path d="M12.992 30.32C11.3067 30.32 9.74933 30.0427 8.32 29.488C6.912 28.912 5.68533 28.112 4.64 27.088C3.59467 26.0427 2.784 24.816 2.208 23.408C1.65333 21.9787 1.376 20.4107 1.376 18.704C1.376 17.04 1.67467 15.504 2.272 14.096C2.86933 12.688 3.69067 11.472 4.736 10.448C5.80267 9.40267 7.05067 8.592 8.48 8.016C9.93067 7.44 11.5093 7.152 13.216 7.152C14.2827 7.152 15.328 7.29067 16.352 7.568C17.376 7.84533 18.3253 8.26133 19.2 8.816C20.096 9.34933 20.864 9.98933 21.504 10.736L18.176 14.544C17.728 14.0747 17.248 13.6693 16.736 13.328C16.2453 12.9653 15.7013 12.688 15.104 12.496C14.5067 12.304 13.8667 12.208 13.184 12.208C12.3307 12.208 11.52 12.368 10.752 12.688C10.0053 12.9867 9.344 13.424 8.768 14C8.21333 14.5547 7.776 15.2373 7.456 16.048C7.136 16.8587 6.976 17.7653 6.976 18.768C6.976 19.7493 7.136 20.6453 7.456 21.456C7.776 22.2453 8.224 22.928 8.8 23.504C9.376 24.08 10.0693 24.5173 10.88 24.816C11.712 25.1147 12.6293 25.264 13.632 25.264C14.3147 25.264 14.9653 25.168 15.584 24.976C16.2027 24.784 16.768 24.528 17.28 24.208C17.8133 23.8667 18.2827 23.4827 18.688 23.056L21.312 27.216C20.7787 27.8133 20.064 28.3467 19.168 28.816C18.2933 29.2853 17.312 29.6587 16.224 29.936C15.1573 30.192 14.08 30.32 12.992 30.32ZM37.3045 65.32C35.6192 65.32 34.0618 65.0427 32.6325 64.488C31.2245 63.912 29.9978 63.112 28.9525 62.088C27.9072 61.0427 27.0965 59.816 26.5205 58.408C25.9658 56.9787 25.6885 55.4107 25.6885 53.704C25.6885 52.04 25.9872 50.504 26.5845 49.096C27.1818 47.688 28.0032 46.472 29.0485 45.448C30.1152 44.4027 31.3632 43.592 32.7925 43.016C34.2432 42.44 35.8218 42.152 37.5285 42.152C38.5952 42.152 39.6405 42.2907 40.6645 42.568C41.6885 42.8453 42.6378 43.2613 43.5125 43.816C44.4085 44.3493 45.1765 44.9893 45.8165 45.736L42.4885 49.544C42.0405 49.0747 41.5605 48.6693 41.0485 48.328C40.5578 47.9653 40.0138 47.688 39.4165 47.496C38.8192 47.304 38.1792 47.208 37.4965 47.208C36.6432 47.208 35.8325 47.368 35.0645 47.688C34.3178 47.9867 33.6565 48.424 33.0805 49C32.5258 49.5547 32.0885 50.2373 31.7685 51.048C31.4485 51.8587 31.2885 52.7653 31.2885 53.768C31.2885 54.7493 31.4485 55.6453 31.7685 56.456C32.0885 57.2453 32.5365 57.928 33.1125 58.504C33.6885 59.08 34.3818 59.5173 35.1925 59.816C36.0245 60.1147 36.9418 60.264 37.9445 60.264C38.6272 60.264 39.2778 60.168 39.8965 59.976C40.5152 59.784 41.0805 59.528 41.5925 59.208C42.1258 58.8667 42.5952 58.4827 43.0005 58.056L45.6245 62.216C45.0912 62.8133 44.3765 63.3467 43.4805 63.816C42.6058 64.2853 41.6245 64.6587 40.5365 64.936C39.4698 65.192 38.3925 65.32 37.3045 65.32Z" fill="#FF9D00"/>
<path d="M22.1867 30L31.0508 7.6H35.6588L44.4588 30H38.9548L34.7308 18.64C34.5601 18.192 34.3894 17.712 34.2188 17.2C34.0481 16.688 33.8774 16.1653 33.7068 15.632C33.5361 15.0773 33.3654 14.544 33.1948 14.032C33.0454 13.4987 32.9174 13.008 32.8108 12.56L33.7708 12.528C33.6428 13.0613 33.4934 13.584 33.3228 14.096C33.1734 14.608 33.0134 15.12 32.8428 15.632C32.6934 16.1227 32.5228 16.624 32.3308 17.136C32.1388 17.6267 31.9574 18.1387 31.7868 18.672L27.5628 30H22.1867ZM26.4108 25.712L28.1068 21.616H38.4108L40.0748 25.712H26.4108ZM50.5238 30V12.4H43.8678V7.6H62.7798V12.4H55.9638V30H50.5238ZM75.8358 30.32C74.1504 30.32 72.5931 30.0427 71.1638 29.488C69.7558 28.912 68.5291 28.112 67.4838 27.088C66.4384 26.0427 65.6278 24.816 65.0518 23.408C64.4971 21.9787 64.2198 20.4107 64.2198 18.704C64.2198 17.04 64.5184 15.504 65.1158 14.096C65.7131 12.688 66.5344 11.472 67.5798 10.448C68.6464 9.40267 69.8944 8.592 71.3238 8.016C72.7744 7.44 74.3531 7.152 76.0598 7.152C77.1264 7.152 78.1718 7.29067 79.1958 7.568C80.2198 7.84533 81.1691 8.26133 82.0438 8.816C82.9398 9.34933 83.7078 9.98933 84.3478 10.736L81.0198 14.544C80.5718 14.0747 80.0918 13.6693 79.5798 13.328C79.0891 12.9653 78.5451 12.688 77.9478 12.496C77.3504 12.304 76.7104 12.208 76.0278 12.208C75.1744 12.208 74.3638 12.368 73.5958 12.688C72.8491 12.9867 72.1878 13.424 71.6118 14C71.0571 14.5547 70.6198 15.2373 70.2998 16.048C69.9798 16.8587 69.8198 17.7653 69.8198 18.768C69.8198 19.7493 69.9798 20.6453 70.2998 21.456C70.6198 22.2453 71.0678 22.928 71.6438 23.504C72.2198 24.08 72.9131 24.5173 73.7238 24.816C74.5558 25.1147 75.4731 25.264 76.4758 25.264C77.1584 25.264 77.8091 25.168 78.4278 24.976C79.0464 24.784 79.6118 24.528 80.1238 24.208C80.6571 23.8667 81.1264 23.4827 81.5318 23.056L84.1558 27.216C83.6224 27.8133 82.9078 28.3467 82.0118 28.816C81.1371 29.2853 80.1558 29.6587 79.0678 29.936C78.0011 30.192 76.9238 30.32 75.8358 30.32ZM101.767 30V7.6H107.207V30H101.767ZM87.8785 30V7.6H93.3185V30H87.8785ZM89.9905 21.264L90.0225 16.4H104.647V21.264H89.9905ZM46.4992 65L55.3633 42.6H59.9713L68.7713 65H63.2673L59.0433 53.64C58.8726 53.192 58.7019 52.712 58.5313 52.2C58.3606 51.688 58.1899 51.1653 58.0193 50.632C57.8486 50.0773 57.6779 49.544 57.5073 49.032C57.3579 48.4987 57.2299 48.008 57.1233 47.56L58.0833 47.528C57.9553 48.0613 57.8059 48.584 57.6353 49.096C57.4859 49.608 57.3259 50.12 57.1553 50.632C57.0059 51.1227 56.8353 51.624 56.6433 52.136C56.4513 52.6267 56.2699 53.1387 56.0993 53.672L51.8753 65H46.4992ZM50.7233 60.712L52.4193 56.616H62.7233L64.3873 60.712H50.7233ZM78.99 65.32C77.518 65.32 76.1847 65.1493 74.99 64.808C73.8167 64.4453 72.7713 63.9333 71.854 63.272C70.9367 62.5893 70.1153 61.7893 69.39 60.872L72.686 57.128C73.7527 58.5573 74.8193 59.5173 75.886 60.008C76.974 60.4987 78.094 60.744 79.246 60.744C79.822 60.744 80.3447 60.6693 80.814 60.52C81.2833 60.3707 81.646 60.1573 81.902 59.88C82.158 59.5813 82.286 59.2187 82.286 58.792C82.286 58.472 82.2007 58.184 82.03 57.928C81.8807 57.672 81.6673 57.448 81.39 57.256C81.1127 57.064 80.782 56.8933 80.398 56.744C80.014 56.5733 79.6087 56.4347 79.182 56.328C78.7553 56.2 78.318 56.0933 77.87 56.008C76.6327 55.7307 75.5553 55.3893 74.638 54.984C73.7207 54.5787 72.9527 54.088 72.334 53.512C71.7367 52.9147 71.2887 52.2427 70.99 51.496C70.6913 50.728 70.542 49.8747 70.542 48.936C70.542 47.9333 70.766 47.016 71.214 46.184C71.6833 45.3307 72.302 44.6053 73.07 44.008C73.8593 43.3893 74.766 42.92 75.79 42.6C76.814 42.2587 77.8807 42.088 78.99 42.088C80.462 42.088 81.7207 42.248 82.766 42.568C83.8327 42.8667 84.7393 43.304 85.486 43.88C86.254 44.456 86.9047 45.1493 87.438 45.96L84.078 49.192C83.63 48.6373 83.1393 48.1787 82.606 47.816C82.094 47.4533 81.5393 47.176 80.942 46.984C80.366 46.792 79.7687 46.696 79.15 46.696C78.51 46.696 77.9553 46.7813 77.486 46.952C77.038 47.1013 76.686 47.3253 76.43 47.624C76.174 47.9013 76.046 48.2427 76.046 48.648C76.046 49.0107 76.1527 49.32 76.366 49.576C76.5793 49.832 76.8673 50.0667 77.23 50.28C77.5927 50.472 78.0087 50.6427 78.478 50.792C78.9473 50.92 79.438 51.0267 79.95 51.112C81.1233 51.3467 82.1793 51.656 83.118 52.04C84.078 52.424 84.8993 52.8933 85.582 53.448C86.286 54.0027 86.8193 54.664 87.182 55.432C87.566 56.1787 87.758 57.0533 87.758 58.056C87.758 59.6133 87.374 60.936 86.606 62.024C85.8593 63.0907 84.8247 63.912 83.502 64.488C82.2007 65.0427 80.6967 65.32 78.99 65.32ZM96.7113 65V47.4H90.0553V42.6H108.967V47.4H102.151V65H96.7113Z" fill="white"/>
</svg>
