<svg width="323" height="64" viewBox="0 0 323 64" fill="none" xmlns="http://www.w3.org/2000/svg">
<rect width="64" height="64" fill="#FF9D00"/>
<path d="M28.0625 55.3552C24.8333 55.3552 22.0521 54.7822 19.7188 53.6364C17.3854 52.4697 15.5938 50.8968 14.3438 48.9177C13.0938 46.9385 12.4688 44.7302 12.4688 42.2927C12.4688 39.5843 13.2604 37.3343 14.8438 35.5427C16.4271 33.7302 18.4688 31.9281 20.9688 30.1364C19.7604 28.5947 18.7188 26.9489 17.8438 25.1989C16.9896 23.4489 16.5625 21.5427 16.5625 19.4802C16.5625 17.2093 17.0833 15.1781 18.125 13.3864C19.1875 11.5739 20.6667 10.1468 22.5625 9.10516C24.4583 8.04266 26.6771 7.51141 29.2188 7.51141C31.7188 7.51141 33.875 8.01141 35.6875 9.01141C37.5 10.0114 38.8854 11.3447 39.8438 13.0114C40.8229 14.6781 41.3125 16.5114 41.3125 18.5114C41.3125 20.6781 40.7708 22.6572 39.6875 24.4489C38.625 26.2197 37.1042 27.8135 35.125 29.2302L32.4062 31.1989L40.0938 39.9802C40.6979 38.8343 41.1771 37.5947 41.5312 36.2614C41.8854 34.9072 42.0625 33.4802 42.0625 31.9802H50.125C50.125 35.126 49.7396 37.9281 48.9688 40.3864C48.2188 42.8239 47.1979 44.9072 45.9062 46.6364L52.9062 54.6677H42.75L39.9688 51.5427C38.2604 52.876 36.3542 53.8447 34.25 54.4489C32.1458 55.0531 30.0833 55.3552 28.0625 55.3552ZM24.8438 19.6052C24.8438 20.5635 25.1146 21.5427 25.6562 22.5427C26.1979 23.5218 26.8958 24.5635 27.75 25.6677L30.1875 24.0739C32.4375 22.5739 33.5625 20.8968 33.5625 19.0427C33.5625 18.126 33.1875 17.2718 32.4375 16.4802C31.7083 15.6885 30.6667 15.2927 29.3125 15.2927C27.9792 15.2927 26.8958 15.7197 26.0625 16.5739C25.25 17.4281 24.8438 18.4385 24.8438 19.6052ZM21.875 41.7614C21.875 43.4281 22.4792 44.8239 23.6875 45.9489C24.8958 47.0531 26.5104 47.6052 28.5312 47.6052C30.6562 47.6052 32.7292 46.9802 34.75 45.7302L25.9062 35.8864L25.625 36.1052C24.3542 37.0218 23.4062 37.9697 22.7812 38.9489C22.1771 39.9281 21.875 40.8656 21.875 41.7614Z" fill="#1B4B6E"/>
<path d="M84.512 20.648C85.4933 20.648 86.384 20.504 87.184 20.216C87.9947 19.928 88.5973 19.6453 88.992 19.368L91.04 23.432C90.5387 23.8587 89.68 24.2907 88.464 24.728C87.2587 25.1653 85.824 25.384 84.16 25.384C82.6027 25.384 81.1413 25.112 79.776 24.568C78.4107 24.024 77.2053 23.2613 76.16 22.28C75.1253 21.288 74.3093 20.1307 73.712 18.808C73.1253 17.4747 72.832 16.0293 72.832 14.472C72.832 12.9147 73.1253 11.4693 73.712 10.136C74.2987 8.792 75.1093 7.624 76.144 6.632C77.1893 5.64 78.3947 4.872 79.76 4.328C81.136 3.77333 82.6027 3.496 84.16 3.496C85.824 3.496 87.2587 3.71467 88.464 4.152C89.68 4.58933 90.5387 5.02133 91.04 5.448L88.992 9.512C88.5973 9.224 87.9947 8.94133 87.184 8.664C86.384 8.376 85.4933 8.232 84.512 8.232C83.424 8.232 82.4747 8.40267 81.664 8.744C80.8533 9.07467 80.176 9.53333 79.632 10.12C79.088 10.7067 78.6827 11.368 78.416 12.104C78.1493 12.84 78.016 13.6133 78.016 14.424C78.016 15.2453 78.1493 16.0293 78.416 16.776C78.6827 17.512 79.088 18.1733 79.632 18.76C80.176 19.3467 80.8533 19.8107 81.664 20.152C82.4747 20.4827 83.424 20.648 84.512 20.648ZM84.512 55.648C85.4933 55.648 86.384 55.504 87.184 55.216C87.9947 54.928 88.5973 54.6453 88.992 54.368L91.04 58.432C90.5387 58.8587 89.68 59.2907 88.464 59.728C87.2587 60.1653 85.824 60.384 84.16 60.384C82.6027 60.384 81.1413 60.112 79.776 59.568C78.4107 59.024 77.2053 58.2613 76.16 57.28C75.1253 56.288 74.3093 55.1307 73.712 53.808C73.1253 52.4747 72.832 51.0293 72.832 49.472C72.832 47.9147 73.1253 46.4693 73.712 45.136C74.2987 43.792 75.1093 42.624 76.144 41.632C77.1893 40.64 78.3947 39.872 79.76 39.328C81.136 38.7733 82.6027 38.496 84.16 38.496C85.824 38.496 87.2587 38.7147 88.464 39.152C89.68 39.5893 90.5387 40.0213 91.04 40.448L88.992 44.512C88.5973 44.224 87.9947 43.9413 87.184 43.664C86.384 43.376 85.4933 43.232 84.512 43.232C83.424 43.232 82.4747 43.4027 81.664 43.744C80.8533 44.0747 80.176 44.5333 79.632 45.12C79.088 45.7067 78.6827 46.368 78.416 47.104C78.1493 47.84 78.016 48.6133 78.016 49.424C78.016 50.2453 78.1493 51.0293 78.416 51.776C78.6827 52.512 79.088 53.1733 79.632 53.76C80.176 54.3467 80.8533 54.8107 81.664 55.152C82.4747 55.4827 83.424 55.648 84.512 55.648Z" fill="#FF9D00"/>
<path d="M100.801 3.88H105.553L113.889 25H108.785L107.249 20.76H99.121L97.569 25H92.449L100.801 3.88ZM100.721 16.568H105.665L103.217 9.64H103.169L100.721 16.568ZM117.452 8.072H112.412V3.88H127.26V8.072H122.236V25H117.452V8.072ZM140.2 20.648C141.181 20.648 142.072 20.504 142.872 20.216C143.682 19.928 144.285 19.6453 144.68 19.368L146.728 23.432C146.226 23.8587 145.368 24.2907 144.152 24.728C142.946 25.1653 141.512 25.384 139.848 25.384C138.29 25.384 136.829 25.112 135.464 24.568C134.098 24.024 132.893 23.2613 131.848 22.28C130.813 21.288 129.997 20.1307 129.4 18.808C128.813 17.4747 128.52 16.0293 128.52 14.472C128.52 12.9147 128.813 11.4693 129.4 10.136C129.986 8.792 130.797 7.624 131.832 6.632C132.877 5.64 134.082 4.872 135.448 4.328C136.824 3.77333 138.29 3.496 139.848 3.496C141.512 3.496 142.946 3.71467 144.152 4.152C145.368 4.58933 146.226 5.02133 146.728 5.448L144.68 9.512C144.285 9.224 143.682 8.94133 142.872 8.664C142.072 8.376 141.181 8.232 140.2 8.232C139.112 8.232 138.162 8.40267 137.352 8.744C136.541 9.07467 135.864 9.53333 135.32 10.12C134.776 10.7067 134.37 11.368 134.104 12.104C133.837 12.84 133.704 13.6133 133.704 14.424C133.704 15.2453 133.837 16.0293 134.104 16.776C134.37 17.512 134.776 18.1733 135.32 18.76C135.864 19.3467 136.541 19.8107 137.352 20.152C138.162 20.4827 139.112 20.648 140.2 20.648ZM161.705 16.504H154.409V25H149.641V3.88H154.409V12.328H161.705V3.88H166.457V25H161.705V16.504ZM100.801 38.88H105.553L113.889 60H108.785L107.249 55.76H99.121L97.569 60H92.449L100.801 38.88ZM100.721 51.568H105.665L103.217 44.64H103.169L100.721 51.568ZM123.274 38.496C124.586 38.496 125.733 38.64 126.714 38.928C127.695 39.216 128.485 39.52 129.082 39.84C129.679 40.16 130.042 40.3733 130.17 40.48L127.866 44.336C127.695 44.208 127.402 44.0213 126.986 43.776C126.581 43.5307 126.095 43.312 125.53 43.12C124.975 42.928 124.394 42.832 123.786 42.832C122.965 42.832 122.298 42.9813 121.786 43.28C121.285 43.568 121.034 44 121.034 44.576C121.034 44.9707 121.167 45.328 121.434 45.648C121.711 45.9573 122.127 46.256 122.682 46.544C123.247 46.8213 123.962 47.1253 124.826 47.456C125.615 47.744 126.357 48.0853 127.05 48.48C127.743 48.8747 128.351 49.344 128.874 49.888C129.407 50.4213 129.829 51.04 130.138 51.744C130.447 52.448 130.602 53.248 130.602 54.144C130.602 55.2107 130.383 56.1387 129.946 56.928C129.509 57.7067 128.911 58.352 128.154 58.864C127.407 59.376 126.554 59.7547 125.594 60C124.645 60.256 123.658 60.384 122.634 60.384C121.183 60.384 119.882 60.2187 118.73 59.888C117.589 59.5573 116.666 59.2 115.962 58.816C115.258 58.432 114.837 58.176 114.698 58.048L117.082 54.032C117.21 54.128 117.455 54.2827 117.818 54.496C118.191 54.7093 118.645 54.9333 119.178 55.168C119.711 55.392 120.277 55.584 120.874 55.744C121.482 55.904 122.079 55.984 122.666 55.984C123.647 55.984 124.383 55.7973 124.874 55.424C125.365 55.04 125.61 54.5387 125.61 53.92C125.61 53.4613 125.455 53.0507 125.146 52.688C124.837 52.3253 124.373 51.984 123.754 51.664C123.135 51.3333 122.362 50.9867 121.434 50.624C120.506 50.2507 119.637 49.7973 118.826 49.264C118.026 48.7307 117.375 48.064 116.874 47.264C116.373 46.464 116.122 45.472 116.122 44.288C116.122 43.104 116.453 42.08 117.114 41.216C117.786 40.3413 118.666 39.6693 119.754 39.2C120.853 38.7307 122.026 38.496 123.274 38.496ZM137.42 43.072H132.38V38.88H147.228V43.072H142.204V60H137.42V43.072Z" fill="white"/>
</svg>
